{"glyphs":{"0":{"ha":833,"x_min":111,"x_max":722,"o":"m 417 -14 l 417 -14 q 255 23 324 -14 q 149 127 186 60 q 111 285 111 194 l 111 285 l 111 729 q 149 888 111 821 q 255 991 186 954 q 417 1028 324 1028 l 417 1028 q 579 991 511 1028 q 685 888 647 954 q 722 729 722 821 l 722 729 l 722 285 q 685 127 722 194 q 578 23 647 60 q 417 -14 510 -14 z m 417 93 l 417 93 q 551 147 500 93 q 601 285 601 200 l 601 285 l 601 729 q 551 867 601 814 q 417 921 500 921 l 417 921 q 283 867 333 921 q 232 729 232 814 l 232 729 l 232 285 q 283 147 232 200 q 417 93 333 93 z m 417 425 l 417 425 q 356 449 379 425 q 333 511 333 472 l 333 511 q 356 572 333 549 q 417 594 379 594 l 417 594 q 477 572 454 594 q 500 511 500 549 l 500 511 q 477 449 500 472 q 417 425 454 425 z"},"1":{"ha":833,"x_min":125,"x_max":750,"o":"m 750 0 l 125 0 l 125 114 l 400 114 l 400 910 l 125 704 l 125 843 l 354 1014 l 525 1014 l 525 114 l 750 114 l 750 0 z"},"2":{"ha":833,"x_min":100,"x_max":731,"o":"m 731 0 l 128 0 l 128 128 l 438 457 q 553 608 517 542 q 589 735 589 674 l 589 735 q 542 868 589 819 q 415 917 496 917 l 415 917 q 276 867 326 917 q 225 729 225 817 l 225 729 l 100 729 q 142 888 103 821 q 252 992 182 956 q 415 1028 322 1028 l 415 1028 q 574 992 507 1028 q 678 892 642 957 q 714 736 714 826 l 714 736 q 668 565 714 650 q 518 372 622 481 l 518 372 l 268 114 l 731 114 l 731 0 z"},"3":{"ha":833,"x_min":97,"x_max":708,"o":"m 401 -14 l 401 -14 q 241 23 310 -14 q 135 125 172 60 q 97 278 97 190 l 97 278 l 222 278 q 270 145 222 193 q 403 97 318 97 l 403 97 q 536 147 489 97 q 583 278 583 197 l 583 278 l 583 350 q 536 483 583 436 q 403 531 489 531 l 403 531 l 299 531 l 299 656 l 550 900 l 139 900 l 139 1014 l 676 1014 l 676 889 l 421 642 q 626 563 549 638 l 626 563 q 708 350 708 483 l 708 350 l 708 278 q 670 125 708 190 q 563 23 632 60 q 401 -14 493 -14 z"},"4":{"ha":833,"x_min":111,"x_max":694,"o":"m 694 0 l 569 0 l 569 222 l 111 222 l 111 418 l 513 1014 l 649 1014 l 236 392 l 236 336 l 569 336 l 569 583 l 694 583 l 694 0 z"},"5":{"ha":833,"x_min":118,"x_max":715,"o":"m 414 -14 l 414 -14 q 211 50 290 -14 q 118 222 132 114 l 118 222 l 243 222 q 294 130 250 163 q 415 97 339 97 l 415 97 q 547 144 503 97 q 590 278 590 192 l 590 278 l 590 376 q 547 510 590 463 q 417 557 503 557 l 417 557 q 322 528 363 557 q 264 453 282 500 l 264 453 l 139 453 l 146 1014 l 679 1014 l 679 900 l 267 900 l 263 563 l 267 563 q 315 629 278 603 l 315 629 q 454 667 367 667 l 454 667 q 647 591 578 668 q 715 376 715 514 l 715 376 l 715 278 q 636 65 715 143 q 414 -14 557 -14 z"},"6":{"ha":833,"x_min":94,"x_max":739,"o":"m 418 -14 l 418 -14 q 248 27 321 -14 q 135 142 175 68 q 94 313 94 215 l 94 313 q 116 463 94 389 q 181 604 138 536 l 181 604 l 435 1014 l 574 1014 l 286 553 l 292 549 q 364 608 318 588 q 467 629 410 629 l 467 629 q 611 590 550 629 q 706 481 672 551 q 739 313 739 410 l 739 313 q 699 142 739 215 q 587 27 658 68 q 418 -14 515 -14 z m 417 97 l 417 97 q 560 156 506 97 q 614 313 614 215 l 614 313 q 560 469 614 410 q 417 528 506 528 l 417 528 q 274 469 328 528 q 219 313 219 410 l 219 313 q 274 156 219 215 q 417 97 328 97 z"},"7":{"ha":833,"x_min":111,"x_max":743,"o":"m 392 0 l 257 0 l 619 900 l 236 900 l 236 750 l 111 750 l 111 1014 l 743 1014 l 743 892 l 392 0 z"},"8":{"ha":833,"x_min":111,"x_max":722,"o":"m 417 -14 l 417 -14 q 255 19 324 -14 q 149 113 186 51 q 111 256 111 174 l 111 256 q 161 411 111 346 l 161 411 q 313 525 208 475 l 313 525 q 182 626 225 574 l 182 626 q 132 776 132 689 l 132 776 q 167 911 132 854 q 265 999 201 968 q 417 1029 329 1029 q 568 999 504 1029 q 667 911 632 968 q 701 776 701 854 l 701 776 q 651 628 701 689 l 651 628 q 521 526 610 575 l 521 526 q 672 414 625 476 l 672 414 q 722 256 722 347 l 722 256 q 640 59 722 132 q 417 -14 557 -14 z m 417 97 l 417 97 q 551 141 501 97 q 600 258 600 185 l 600 258 q 568 367 600 318 q 476 444 536 415 l 476 444 l 417 474 l 353 443 q 265 367 296 415 q 233 261 233 319 l 233 261 q 283 142 233 186 q 417 97 332 97 z m 376 594 l 415 576 l 451 593 q 546 669 513 622 q 579 774 579 717 l 579 774 q 535 879 579 840 q 417 918 492 918 q 298 878 342 918 q 254 772 254 839 l 254 772 q 287 669 254 717 q 376 594 319 622 l 376 594 z"},"9":{"ha":833,"x_min":94,"x_max":739,"o":"m 399 0 l 260 0 l 547 461 l 542 465 q 469 406 515 426 q 367 385 424 385 l 367 385 q 223 424 285 385 q 128 534 161 463 q 94 701 94 606 l 94 701 q 135 873 94 800 q 247 987 175 946 q 415 1028 319 1028 l 415 1028 q 585 987 513 1028 q 699 873 658 946 q 739 701 739 800 l 739 701 q 717 551 739 625 q 653 410 696 478 l 653 410 l 399 0 z m 417 486 l 417 486 q 560 545 506 486 q 614 701 614 604 l 614 701 q 560 858 614 799 q 417 917 506 917 l 417 917 q 274 858 328 917 q 219 701 219 799 l 219 701 q 274 545 219 604 q 417 486 328 486 z"},"A":{"ha":833,"x_min":69,"x_max":764,"o":"m 197 0 l 69 0 l 333 1014 l 501 1014 l 764 0 l 638 0 l 571 269 l 264 269 l 197 0 z m 367 689 l 289 375 l 544 375 l 467 688 q 432 836 444 776 q 417 914 419 896 l 417 914 q 401 836 414 896 q 367 689 389 776 l 367 689 z"},"B":{"ha":833,"x_min":129,"x_max":736,"o":"m 438 0 l 129 0 l 129 1014 l 417 1014 q 634 944 556 1014 q 713 751 713 875 l 713 751 q 683 631 713 682 q 601 551 654 579 l 601 551 q 561 536 582 542 l 561 536 q 613 515 588 528 l 613 515 q 703 424 671 483 q 736 282 736 364 l 736 282 q 700 132 736 196 q 597 34 664 68 q 438 0 531 0 l 438 0 z m 251 474 l 251 113 l 424 113 q 562 159 511 113 q 613 286 613 206 l 613 286 q 562 422 613 369 q 424 474 511 474 l 424 474 l 251 474 z m 251 901 l 251 582 l 415 582 q 542 625 496 582 q 589 742 589 668 q 543 858 589 815 q 417 901 497 901 l 417 901 l 251 901 z"},"C":{"ha":833,"x_min":122,"x_max":719,"o":"m 422 -14 l 422 -14 q 263 21 331 -14 q 159 122 196 56 q 122 278 122 188 l 122 278 l 122 736 q 159 893 122 828 q 263 993 196 958 q 422 1028 331 1028 l 422 1028 q 581 992 514 1028 q 683 892 647 957 q 719 736 719 826 l 719 736 l 594 736 q 549 869 594 822 q 422 915 504 915 l 422 915 q 294 869 340 915 q 247 738 247 824 l 247 738 l 247 278 q 294 145 247 192 q 422 99 340 99 l 422 99 q 549 145 504 99 q 594 278 594 192 l 594 278 l 719 278 q 683 123 719 189 q 581 22 647 57 q 422 -14 514 -14 z"},"D":{"ha":833,"x_min":128,"x_max":711,"o":"m 390 0 l 128 0 l 128 1014 l 390 1014 q 560 976 489 1014 q 672 871 632 939 q 711 710 711 803 l 711 710 l 711 306 q 672 144 711 213 q 560 38 632 75 q 390 0 489 0 l 390 0 z m 253 903 l 253 111 l 390 111 q 534 163 482 111 q 586 306 586 214 l 586 306 l 586 710 q 534 851 586 800 q 390 903 482 903 l 390 903 l 253 903 z"},"E":{"ha":833,"x_min":139,"x_max":722,"o":"m 722 0 l 139 0 l 139 1014 l 722 1014 l 722 900 l 263 900 l 263 586 l 674 586 l 674 474 l 263 474 l 263 114 l 722 114 l 722 0 z"},"F":{"ha":833,"x_min":132,"x_max":729,"o":"m 257 0 l 132 0 l 132 1015 l 729 1015 l 729 901 l 254 901 l 254 564 l 693 564 l 693 450 l 257 450 l 257 0 z"},"G":{"ha":833,"x_min":122,"x_max":719,"o":"m 422 -14 l 422 -14 q 263 21 331 -14 q 159 122 196 56 q 122 278 122 188 l 122 278 l 122 736 q 159 893 122 828 q 263 993 196 958 q 422 1028 331 1028 l 422 1028 q 581 992 514 1028 q 683 892 647 957 q 719 736 719 826 l 719 736 l 594 736 q 549 869 594 822 q 422 915 504 915 l 422 915 q 294 869 340 915 q 247 738 247 824 l 247 738 l 247 278 q 294 144 247 192 q 422 97 340 97 l 422 97 q 549 144 504 97 q 594 278 594 192 l 594 278 l 594 403 l 389 403 l 389 517 l 719 517 l 719 278 q 683 123 719 189 q 581 22 647 57 q 422 -14 514 -14 z"},"H":{"ha":833,"x_min":129,"x_max":704,"o":"m 254 0 l 129 0 l 129 1014 l 254 1014 l 254 581 l 579 581 l 579 1014 l 704 1014 l 704 0 l 579 0 l 579 467 l 254 467 l 254 0 z"},"I":{"ha":833,"x_min":146,"x_max":688,"o":"m 688 0 l 146 0 l 146 114 l 353 114 l 353 900 l 146 900 l 146 1014 l 688 1014 l 688 900 l 481 900 l 481 114 l 688 114 l 688 0 z"},"J":{"ha":833,"x_min":63,"x_max":688,"o":"m 375 -14 l 375 -14 q 146 68 229 -14 q 63 292 63 150 l 63 292 l 188 292 q 237 148 188 199 q 375 97 286 97 l 375 97 q 513 148 464 97 q 563 292 563 199 l 563 292 l 563 900 l 319 900 l 319 1014 l 688 1014 l 688 292 q 603 68 688 150 q 375 -14 519 -14 z"},"K":{"ha":833,"x_min":128,"x_max":778,"o":"m 253 0 l 128 0 l 128 1014 l 253 1014 l 253 579 l 403 579 l 628 1014 l 764 1014 l 513 526 l 778 0 l 635 0 l 399 469 l 253 469 l 253 0 z"},"L":{"ha":833,"x_min":160,"x_max":743,"o":"m 743 0 l 160 0 l 160 1014 l 285 1014 l 285 114 l 743 114 l 743 0 z"},"M":{"ha":833,"x_min":106,"x_max":728,"o":"m 228 0 l 106 0 l 106 1014 l 269 1014 l 375 686 q 403 598 390 642 q 421 531 415 554 l 421 531 q 439 598 428 554 q 464 688 450 642 l 464 688 l 564 1014 l 728 1014 l 728 0 l 606 0 l 606 368 q 610 507 606 429 q 621 666 614 585 q 635 822 628 747 q 649 951 643 896 l 649 951 l 485 444 l 353 444 l 188 951 q 201 826 194 897 q 214 674 208 754 q 224 515 219 594 q 228 368 228 436 l 228 368 l 228 0 z"},"N":{"ha":833,"x_min":125,"x_max":708,"o":"m 246 0 l 125 0 l 125 1014 l 292 1014 l 601 146 q 595 231 599 181 q 590 338 592 282 q 588 444 588 394 l 588 444 l 588 1014 l 708 1014 l 708 0 l 542 0 l 233 868 q 239 784 236 835 q 244 677 242 733 q 246 569 246 621 l 246 569 l 246 0 z"},"O":{"ha":833,"x_min":122,"x_max":711,"o":"m 417 -14 l 417 -14 q 259 21 325 -14 q 158 122 193 56 q 122 278 122 188 l 122 278 l 122 736 q 158 893 122 828 q 259 993 193 958 q 417 1028 325 1028 l 417 1028 q 574 993 508 1028 q 676 893 640 958 q 711 738 711 828 l 711 738 l 711 278 q 676 122 711 188 q 574 21 640 56 q 417 -14 508 -14 z m 417 99 l 417 99 q 542 145 499 99 q 586 278 586 192 l 586 278 l 586 736 q 542 869 586 822 q 417 915 499 915 l 417 915 q 292 869 336 915 q 247 736 247 822 l 247 736 l 247 278 q 292 145 247 192 q 417 99 336 99 z"},"P":{"ha":833,"x_min":128,"x_max":764,"o":"m 253 0 l 128 0 l 128 1014 l 454 1014 q 618 977 549 1014 q 726 874 688 940 q 764 715 764 807 l 764 715 q 726 558 764 625 q 618 453 688 490 q 454 417 549 417 l 454 417 l 253 417 l 253 0 z m 253 901 l 253 529 l 454 529 q 585 580 536 529 q 635 715 635 631 l 635 715 q 585 851 635 801 q 454 901 536 901 l 454 901 l 253 901 z"},"Q":{"ha":833,"x_min":111,"x_max":731,"o":"m 731 -250 l 586 -250 l 443 -12 q 438 -12 440 -12 l 438 -12 q 417 -14 428 -14 l 417 -14 q 255 23 324 -14 q 149 127 186 60 q 111 285 111 194 l 111 285 l 111 729 q 149 888 111 821 q 255 991 186 954 q 417 1028 324 1028 l 417 1028 q 579 991 511 1028 q 685 888 647 954 q 722 729 722 821 l 722 729 l 722 285 q 682 122 722 192 q 568 18 642 53 l 568 18 l 731 -250 z m 417 97 l 417 97 q 548 149 499 97 q 597 285 597 200 l 597 285 l 597 729 q 548 866 597 815 q 417 917 499 917 q 285 866 335 917 q 236 729 236 815 l 236 729 l 236 285 q 285 149 236 200 q 417 97 335 97 z"},"R":{"ha":833,"x_min":128,"x_max":757,"o":"m 253 0 l 128 0 l 128 1014 l 442 1014 q 600 977 532 1014 q 706 875 668 940 q 743 722 743 810 l 743 722 q 690 546 743 619 q 544 444 636 472 l 544 444 l 757 0 l 610 0 l 415 431 l 253 431 l 253 0 z m 253 901 l 253 543 l 442 543 q 567 592 519 543 q 614 722 614 642 l 614 722 q 567 853 614 804 q 442 901 519 901 l 442 901 l 253 901 z"},"S":{"ha":833,"x_min":100,"x_max":733,"o":"m 422 -14 l 422 -14 q 251 19 322 -14 q 140 115 179 53 q 100 264 101 178 l 100 264 l 225 264 q 277 143 225 188 q 422 99 329 99 l 422 99 q 559 142 510 99 q 608 261 608 185 l 608 261 q 576 368 608 322 q 482 432 543 414 l 482 432 l 344 475 q 184 582 240 507 q 128 758 128 657 l 128 758 q 165 901 128 840 q 268 995 201 961 q 425 1029 335 1029 l 425 1029 q 639 955 558 1029 q 721 757 719 881 l 721 757 l 596 757 q 551 874 596 832 q 424 917 506 917 l 424 917 q 298 878 343 917 q 253 769 253 839 l 253 769 q 286 661 253 707 q 382 596 319 615 l 382 596 l 521 551 q 678 443 622 519 q 733 264 733 367 l 733 264 q 694 118 733 181 q 585 21 656 56 q 422 -14 515 -14 z"},"T":{"ha":833,"x_min":76,"x_max":757,"o":"m 479 0 l 354 0 l 354 901 l 76 901 l 76 1015 l 757 1015 l 757 901 l 479 901 l 479 0 z"},"U":{"ha":833,"x_min":125,"x_max":708,"o":"m 417 -14 l 417 -14 q 200 65 275 -14 q 125 278 125 143 l 125 278 l 125 1014 l 250 1014 l 250 278 q 291 146 250 194 q 417 97 332 97 l 417 97 q 542 146 500 97 q 583 278 583 194 l 583 278 l 583 1014 l 708 1014 l 708 278 q 634 64 708 142 q 417 -14 560 -14 z"},"V":{"ha":833,"x_min":69,"x_max":764,"o":"m 501 0 l 331 0 l 69 1014 l 199 1014 l 371 325 q 401 191 389 253 q 419 97 414 129 l 419 97 q 437 191 425 129 q 467 325 449 253 l 467 325 l 638 1014 l 764 1014 l 501 0 z"},"W":{"ha":833,"x_min":35,"x_max":799,"o":"m 308 0 l 151 0 l 35 1014 l 154 1014 l 231 264 q 236 201 233 233 q 241 139 239 168 q 243 90 243 110 l 243 90 q 248 139 246 110 q 253 201 250 168 q 261 264 257 233 l 261 264 l 356 1014 l 485 1014 l 571 264 q 578 201 575 233 q 585 139 582 168 q 590 90 589 110 l 590 90 l 594 139 q 599 201 596 168 q 606 264 603 233 l 606 264 l 685 1014 l 799 1014 l 679 0 l 522 0 l 436 764 q 430 826 433 796 q 424 883 426 857 q 419 926 421 910 l 419 926 q 415 883 418 910 q 408 826 411 857 q 401 764 406 796 l 401 764 l 308 0 z"},"X":{"ha":833,"x_min":56,"x_max":778,"o":"m 194 0 l 56 0 l 347 514 l 71 1014 l 215 1014 l 372 714 q 398 663 385 690 q 419 621 411 636 l 419 621 q 440 663 426 636 q 465 714 453 690 l 465 714 l 625 1014 l 763 1014 l 486 522 l 778 0 l 635 0 l 461 322 q 435 373 449 346 q 415 417 422 400 l 415 417 q 395 374 408 400 q 369 324 382 347 l 369 324 l 194 0 z"},"Y":{"ha":833,"x_min":49,"x_max":785,"o":"m 479 0 l 354 0 l 354 379 l 49 1014 l 178 1014 l 379 597 q 406 538 396 563 q 418 503 415 514 l 418 503 q 431 538 421 514 q 458 597 442 563 l 458 597 l 656 1014 l 785 1014 l 479 379 l 479 0 z"},"Z":{"ha":833,"x_min":118,"x_max":715,"o":"m 715 0 l 118 0 l 118 125 l 575 900 l 125 900 l 125 1014 l 701 1014 l 701 889 l 244 114 l 715 114 l 715 0 z"},"a":{"ha":833,"x_min":90,"x_max":708,"o":"m 350 -14 l 350 -14 q 160 48 229 -14 q 90 215 90 110 l 90 215 q 160 383 90 322 q 347 444 229 444 l 347 444 l 583 444 l 583 521 q 541 630 583 592 q 421 668 499 668 l 421 668 q 307 640 353 668 q 254 563 261 611 l 254 563 l 129 563 q 222 719 142 661 q 424 778 303 778 l 424 778 q 632 710 556 778 q 708 525 708 642 l 708 525 l 708 0 l 586 0 l 586 146 l 585 146 q 522 35 578 78 l 522 35 q 350 -14 457 -14 z m 381 85 l 381 85 q 526 129 469 85 q 583 243 583 174 l 583 243 l 583 351 l 350 351 q 251 317 288 351 q 215 222 215 282 l 215 222 q 259 122 215 158 q 381 85 303 85 z"},"b":{"ha":833,"x_min":128,"x_max":715,"o":"m 461 -14 l 461 -14 q 310 38 367 -14 l 310 38 q 254 146 263 79 l 254 146 l 253 146 l 253 0 l 128 0 l 128 1014 l 253 1014 l 253 792 l 250 618 l 254 618 q 311 726 263 683 l 311 726 q 461 778 368 778 l 461 778 q 646 701 576 778 q 715 493 715 625 l 715 493 l 715 269 q 646 63 715 139 q 461 -14 576 -14 z m 419 94 l 419 94 q 544 142 499 94 q 590 278 590 189 l 590 278 l 590 486 q 544 622 590 575 q 419 669 499 669 l 419 669 q 298 621 343 669 q 253 486 253 572 l 253 486 l 253 278 q 298 143 253 192 q 419 94 343 94 z"},"c":{"ha":833,"x_min":118,"x_max":719,"o":"m 422 -14 l 422 -14 q 262 21 331 -14 q 156 122 193 56 q 118 278 118 188 l 118 278 l 118 486 q 156 643 118 578 q 262 743 193 708 q 422 778 331 778 l 422 778 q 635 707 554 778 q 719 514 715 636 l 719 514 l 594 514 q 545 627 590 588 q 422 667 500 667 l 422 667 q 292 620 340 667 q 243 488 243 574 l 243 488 l 243 278 q 292 144 243 192 q 422 97 340 97 l 422 97 q 545 138 500 97 q 594 250 590 178 l 594 250 l 719 250 q 635 57 715 128 q 422 -14 554 -14 z"},"d":{"ha":833,"x_min":118,"x_max":706,"o":"m 372 -14 l 372 -14 q 188 63 258 -14 q 118 269 118 139 l 118 269 l 118 493 q 188 701 118 625 q 372 778 257 778 l 372 778 q 524 726 467 778 l 524 726 q 579 618 571 683 l 579 618 l 583 618 l 581 792 l 581 1014 l 706 1014 l 706 0 l 581 0 l 581 146 l 579 146 q 524 38 571 79 l 524 38 q 372 -14 467 -14 z m 414 94 l 414 94 q 536 143 492 94 q 581 278 581 192 l 581 278 l 581 486 q 536 621 581 572 q 414 669 492 669 l 414 669 q 289 622 335 669 q 243 486 243 575 l 243 486 l 243 278 q 289 142 243 189 q 414 94 335 94 z"},"e":{"ha":833,"x_min":118,"x_max":715,"o":"m 417 -14 l 417 -14 q 259 22 326 -14 q 155 124 192 58 q 118 278 118 190 l 118 278 l 118 486 q 155 640 118 575 q 259 742 192 706 q 417 778 326 778 q 574 742 507 778 q 678 640 642 706 q 715 486 715 575 l 715 486 l 715 351 l 240 351 l 240 278 q 286 140 240 188 q 417 92 332 92 l 417 92 q 533 117 489 92 q 588 194 578 143 l 588 194 l 713 194 q 619 42 700 99 q 417 -14 538 -14 z m 240 446 l 593 446 l 593 486 q 548 625 593 576 q 417 674 503 674 l 417 674 q 286 625 332 674 q 240 486 240 576 l 240 486 l 240 446 z"},"f":{"ha":833,"x_min":83,"x_max":743,"o":"m 431 0 l 306 0 l 306 574 l 83 574 l 83 688 l 306 688 l 306 819 q 363 962 306 910 q 519 1014 419 1014 l 519 1014 l 743 1014 l 743 900 l 519 900 q 453 880 476 900 q 431 819 431 860 l 431 819 l 431 688 l 743 688 l 743 574 l 431 574 l 431 0 z"},"g":{"ha":833,"x_min":122,"x_max":704,"o":"m 465 -250 l 224 -250 l 224 -136 l 467 -136 q 552 -110 525 -136 q 579 -28 579 -83 l 579 -28 l 579 69 l 582 208 l 579 208 q 525 97 574 140 l 525 97 q 376 49 469 49 l 376 49 q 190 126 258 49 q 122 333 122 203 l 122 333 l 122 494 q 190 701 122 625 q 376 778 258 778 l 376 778 q 525 729 469 778 l 525 729 q 579 618 574 686 l 579 618 l 581 618 l 581 764 l 704 764 l 704 -28 q 641 -190 704 -131 q 465 -250 578 -250 l 465 -250 z m 414 157 l 414 157 q 536 206 492 157 q 581 340 581 254 l 581 340 l 581 486 q 536 621 581 572 q 414 669 492 669 l 414 669 q 291 622 335 669 q 247 486 247 575 l 247 486 l 247 340 q 291 204 247 251 q 414 157 335 157 z"},"h":{"ha":833,"x_min":128,"x_max":708,"o":"m 253 0 l 128 0 l 128 1014 l 253 1014 l 253 618 l 254 618 q 307 729 263 688 l 307 729 q 457 778 361 778 l 457 778 q 640 707 572 778 q 708 514 708 636 l 708 514 l 708 0 l 583 0 l 583 500 q 540 627 583 582 q 421 672 496 672 l 421 672 q 298 624 343 672 q 253 486 253 575 l 253 486 l 253 0 z"},"i":{"ha":833,"x_min":118,"x_max":771,"o":"m 771 0 l 118 0 l 118 114 l 389 114 l 389 650 l 153 650 l 153 764 l 514 764 l 514 114 l 771 114 l 771 0 z m 438 901 l 438 901 q 365 925 392 901 q 339 989 339 949 l 339 989 q 365 1055 339 1031 q 438 1079 392 1079 l 438 1079 q 510 1055 483 1079 q 536 989 536 1031 l 536 989 q 510 925 536 949 q 438 901 483 901 z"},"j":{"ha":833,"x_min":118,"x_max":633,"o":"m 297 -250 l 118 -250 l 118 -135 l 297 -135 q 431 -88 383 -135 q 479 43 479 -42 l 479 43 l 479 650 l 160 650 l 160 764 l 604 764 l 604 43 q 521 -171 604 -92 q 297 -250 438 -250 l 297 -250 z m 535 901 l 535 901 q 463 925 489 901 q 436 989 436 949 l 436 989 q 463 1055 436 1031 q 535 1079 489 1079 l 535 1079 q 607 1055 581 1079 q 633 989 633 1031 l 633 989 q 607 925 633 949 q 535 901 581 901 z"},"k":{"ha":833,"x_min":132,"x_max":774,"o":"m 257 0 l 132 0 l 132 1014 l 257 1014 l 257 449 l 404 449 l 626 764 l 769 764 l 513 400 l 774 0 l 628 0 l 406 340 l 257 340 l 257 0 z"},"l":{"ha":833,"x_min":42,"x_max":764,"o":"m 764 0 l 521 0 q 404 26 454 0 q 326 101 354 53 q 299 215 299 150 l 299 215 l 299 900 l 42 900 l 42 1014 l 424 1014 l 424 215 q 450 141 424 168 q 521 114 476 114 l 521 114 l 764 114 l 764 0 z"},"m":{"ha":833,"x_min":92,"x_max":742,"o":"m 207 0 l 92 0 l 92 764 l 201 764 l 201 672 l 210 672 q 242 740 217 713 l 242 740 q 333 778 275 778 l 333 778 q 432 731 397 778 l 432 731 q 458 672 450 707 l 458 672 l 464 672 q 497 740 471 713 l 497 740 q 590 778 532 778 l 590 778 q 702 724 663 778 q 742 581 742 669 l 742 581 l 742 0 l 626 0 l 626 582 q 606 656 626 629 q 547 682 586 682 l 547 682 q 488 656 510 682 q 467 583 467 631 l 467 583 l 467 0 l 367 0 l 367 582 q 345 656 367 631 q 285 682 324 682 q 226 656 246 682 q 207 583 207 631 l 207 583 l 207 0 z"},"n":{"ha":833,"x_min":128,"x_max":708,"o":"m 253 0 l 128 0 l 128 764 l 253 764 l 253 618 l 254 618 q 307 729 263 688 l 307 729 q 457 778 361 778 l 457 778 q 640 707 572 778 q 708 514 708 636 l 708 514 l 708 0 l 583 0 l 583 500 q 540 626 583 582 q 421 669 496 669 l 421 669 q 298 622 343 669 q 253 486 253 575 l 253 486 l 253 0 z"},"o":{"ha":833,"x_min":118,"x_max":715,"o":"m 417 -11 l 417 -11 q 258 24 325 -11 q 155 124 192 58 q 118 281 118 190 l 118 281 l 118 483 q 155 640 118 575 q 258 740 192 706 q 417 775 325 775 l 417 775 q 575 740 508 775 q 678 640 642 706 q 715 485 715 575 l 715 485 l 715 281 q 678 124 715 190 q 575 24 642 58 q 417 -11 508 -11 z m 417 100 l 417 100 q 544 146 499 100 q 590 281 590 192 l 590 281 l 590 483 q 544 618 590 572 q 417 664 499 664 l 417 664 q 290 618 336 664 q 243 483 243 572 l 243 483 l 243 281 q 290 146 243 192 q 417 100 336 100 z"},"p":{"ha":833,"x_min":128,"x_max":715,"o":"m 253 -250 l 128 -250 l 128 764 l 253 764 l 253 618 l 254 618 q 311 728 263 685 l 311 728 q 463 778 368 778 l 463 778 q 647 702 578 778 q 715 494 715 626 l 715 494 l 715 271 q 684 119 715 183 q 597 21 653 56 q 463 -14 540 -14 l 463 -14 q 311 38 369 -14 l 311 38 q 254 146 263 81 l 254 146 l 250 146 l 253 -28 l 253 -250 z m 421 94 l 421 94 q 545 142 500 94 q 590 278 590 189 l 590 278 l 590 486 q 545 622 590 575 q 421 669 500 669 l 421 669 q 299 621 344 669 q 253 486 253 572 l 253 486 l 253 278 q 299 143 253 192 q 421 94 344 94 z"},"q":{"ha":833,"x_min":122,"x_max":706,"o":"m 706 -250 l 581 -250 l 581 -28 l 583 146 l 579 146 q 524 38 571 81 l 524 38 q 372 -14 467 -14 l 372 -14 q 190 63 257 -14 q 122 271 122 139 l 122 271 l 122 494 q 190 702 122 626 q 372 778 258 778 l 372 778 q 524 728 467 778 l 524 728 q 579 618 571 685 l 579 618 l 581 618 l 581 764 l 706 764 l 706 -250 z m 414 94 l 414 94 q 536 143 492 94 q 581 278 581 192 l 581 278 l 581 486 q 536 621 581 572 q 414 669 492 669 l 414 669 q 291 622 335 669 q 247 486 247 575 l 247 486 l 247 278 q 291 142 247 189 q 414 94 335 94 z"},"r":{"ha":833,"x_min":154,"x_max":742,"o":"m 279 0 l 154 0 l 154 764 l 276 764 l 276 628 q 319 715 290 681 l 319 715 q 478 778 372 778 l 478 778 q 670 702 599 778 q 742 497 742 626 l 742 497 l 742 451 l 617 451 l 617 486 q 573 624 617 576 q 449 672 529 672 l 449 672 q 324 624 369 672 q 279 486 279 575 l 279 486 l 279 0 z"},"s":{"ha":833,"x_min":125,"x_max":722,"o":"m 451 -11 l 393 -11 q 258 13 315 -11 q 166 82 200 38 q 125 188 132 126 l 125 188 l 250 188 q 295 124 258 147 q 393 100 332 100 l 393 100 l 451 100 q 561 130 525 100 q 597 210 597 160 l 597 210 q 565 287 597 258 q 468 325 532 315 l 468 325 l 365 342 q 198 412 253 361 q 143 560 143 463 l 143 560 q 208 719 143 663 q 404 775 274 775 l 404 775 l 457 775 q 633 724 567 775 q 714 585 700 672 l 714 585 l 589 585 q 547 642 581 621 q 457 664 514 664 l 457 664 l 404 664 q 301 638 333 664 q 268 558 268 611 l 268 558 q 296 489 268 511 q 383 457 324 467 l 383 457 l 486 440 q 666 368 610 421 q 722 215 722 315 l 722 215 q 655 49 722 110 q 451 -11 588 -11 l 451 -11 z"},"t":{"ha":833,"x_min":76,"x_max":722,"o":"m 708 0 l 500 0 q 347 53 401 0 q 292 201 292 106 l 292 201 l 292 650 l 76 650 l 76 764 l 292 764 l 292 979 l 417 979 l 417 764 l 722 764 l 722 650 l 417 650 l 417 201 q 500 114 417 114 l 500 114 l 708 114 l 708 0 z"},"u":{"ha":833,"x_min":125,"x_max":708,"o":"m 415 -14 l 415 -14 q 204 65 283 -14 q 125 278 125 143 l 125 278 l 125 764 l 250 764 l 250 278 q 294 144 250 192 q 415 96 339 96 l 415 96 q 538 144 493 96 q 583 278 583 192 l 583 278 l 583 764 l 708 764 l 708 278 q 628 65 708 143 q 415 -14 547 -14 z"},"v":{"ha":833,"x_min":76,"x_max":757,"o":"m 501 0 l 332 0 l 76 764 l 204 764 l 374 250 q 401 162 389 204 q 419 96 414 119 l 419 96 q 439 162 426 119 q 465 250 451 204 l 465 250 l 631 764 l 757 764 l 501 0 z"},"w":{"ha":833,"x_min":49,"x_max":785,"o":"m 308 0 l 171 0 l 49 764 l 160 764 l 236 222 q 245 156 240 192 q 253 97 250 121 l 253 97 q 262 156 256 121 q 272 222 268 192 l 272 222 l 357 764 l 476 764 l 561 222 q 572 156 565 192 q 581 97 578 121 l 581 97 q 590 156 583 121 q 600 222 596 192 l 600 222 l 679 764 l 785 764 l 657 0 l 519 0 l 438 528 q 425 606 432 567 q 415 667 418 644 l 415 667 q 407 606 413 644 q 394 528 401 567 l 394 528 l 308 0 z"},"x":{"ha":833,"x_min":69,"x_max":764,"o":"m 215 0 l 69 0 l 340 393 l 86 764 l 233 764 l 385 528 q 404 494 394 513 l 404 494 l 418 465 q 431 494 422 476 q 450 528 440 513 l 450 528 l 603 764 l 749 764 l 494 392 l 764 0 l 617 0 l 453 250 q 434 285 443 265 q 418 318 425 306 l 418 318 q 402 285 413 306 q 381 250 392 265 l 381 250 l 215 0 z"},"y":{"ha":833,"x_min":76,"x_max":757,"o":"m 381 -250 l 247 -250 l 360 47 l 76 764 l 215 764 l 393 292 q 411 235 403 268 q 425 181 419 203 l 425 181 q 439 235 431 203 q 456 292 447 268 l 456 292 l 622 764 l 757 764 l 381 -250 z"},"z":{"ha":833,"x_min":125,"x_max":708,"o":"m 708 0 l 125 0 l 125 125 l 553 650 l 136 650 l 136 764 l 693 764 l 693 639 l 257 114 l 708 114 l 708 0 z"}," ":{"ha":833,"x_min":0,"x_max":0,"o":""},".":{"ha":833,"x_min":301,"x_max":532,"o":"m 417 -14 l 417 -14 q 333 17 364 -14 q 301 99 301 47 l 301 99 q 333 185 301 153 q 417 217 364 217 l 417 217 q 501 185 469 217 q 532 99 532 153 l 532 99 q 501 17 532 47 q 417 -14 469 -14 z"},",":{"ha":833,"x_min":229,"x_max":521,"o":"m 340 -222 l 229 -222 l 340 210 l 521 210 l 340 -222 z"},":":{"ha":833,"x_min":301,"x_max":532,"o":"m 417 569 l 417 569 q 333 598 365 569 q 301 674 301 626 l 301 674 q 333 749 301 721 q 417 778 365 778 l 417 778 q 501 749 469 778 q 532 674 532 721 l 532 674 q 501 598 532 626 q 417 569 469 569 z m 417 -14 l 417 -14 q 333 15 365 -14 q 301 90 301 43 l 301 90 q 333 166 301 138 q 417 194 365 194 l 417 194 q 501 166 469 194 q 532 90 532 138 l 532 90 q 501 15 532 43 q 417 -14 469 -14 z"},";":{"ha":833,"x_min":236,"x_max":535,"o":"m 347 -222 l 236 -222 l 347 210 l 528 210 l 347 -222 z m 431 569 l 403 569 q 328 599 357 569 q 299 674 299 628 l 299 674 q 328 748 299 718 q 403 778 358 778 l 403 778 l 431 778 q 505 748 475 778 q 535 674 535 718 l 535 674 q 506 599 535 628 q 431 569 476 569 l 431 569 z"},"!":{"ha":833,"x_min":313,"x_max":521,"o":"m 461 299 l 372 299 l 343 847 l 343 1014 l 490 1014 l 490 847 l 461 299 z m 438 -7 l 396 -7 q 336 17 360 -7 q 313 76 313 40 l 313 76 q 336 136 313 113 q 396 160 360 160 l 396 160 l 438 160 q 499 137 478 160 q 521 78 521 114 l 521 78 q 497 17 521 42 q 438 -7 474 -7 l 438 -7 z"},"?":{"ha":833,"x_min":188,"x_max":681,"o":"m 418 285 l 293 285 l 293 535 l 363 535 q 503 584 451 535 q 556 715 556 633 l 556 715 q 503 847 556 797 q 361 896 451 896 l 361 896 l 188 896 l 188 1014 l 361 1014 q 530 977 458 1014 q 641 874 601 940 q 681 715 681 807 l 681 715 q 647 573 681 636 q 555 472 614 510 q 418 431 496 435 l 418 431 l 418 285 z m 375 -7 l 333 -7 q 274 17 297 -7 q 250 76 250 40 l 250 76 q 274 136 250 113 q 333 160 297 160 l 333 160 l 375 160 q 437 137 415 160 q 458 78 458 114 l 458 78 q 435 17 458 42 q 375 -7 411 -7 l 375 -7 z"},"'":{"ha":833,"x_min":342,"x_max":476,"o":"m 461 597 l 358 597 l 342 806 l 342 1014 l 476 1014 l 476 806 l 461 597 z"},"\"":{"ha":833,"x_min":208,"x_max":625,"o":"m 610 597 l 507 597 l 490 889 l 490 1014 l 625 1014 l 625 889 l 610 597 z m 328 597 l 225 597 l 208 889 l 208 1014 l 343 1014 l 343 889 l 328 597 z"},"(":{"ha":833,"x_min":257,"x_max":674,"o":"m 674 -43 l 674 -167 q 367 25 476 -118 q 257 375 257 168 l 257 375 l 257 625 q 308 872 257 761 q 452 1058 358 982 q 674 1167 546 1135 l 674 1167 l 674 1049 q 519 969 585 1028 q 418 822 454 910 q 382 625 382 735 l 382 625 l 382 375 q 417 181 382 268 q 519 35 453 93 q 674 -43 585 -22 l 674 -43 z"},")":{"ha":833,"x_min":160,"x_max":576,"o":"m 160 -167 l 160 -167 l 160 -43 q 315 35 250 -22 q 416 181 381 93 q 451 375 451 268 l 451 375 l 451 625 q 415 822 451 735 q 314 969 379 910 q 160 1049 249 1028 l 160 1049 l 160 1167 q 382 1058 289 1135 q 526 872 475 982 q 576 625 576 761 l 576 625 l 576 375 q 467 25 576 168 q 160 -167 357 -118 z"},"[":{"ha":833,"x_min":285,"x_max":625,"o":"m 625 -153 l 285 -153 l 285 1153 l 625 1153 l 625 1042 l 410 1042 l 410 -42 l 625 -42 l 625 -153 z"},"]":{"ha":833,"x_min":208,"x_max":549,"o":"m 549 -153 l 208 -153 l 208 -42 l 424 -42 l 424 1042 l 208 1042 l 208 1153 l 549 1153 l 549 -153 z"},"{":{"ha":833,"x_min":118,"x_max":715,"o":"m 715 -153 l 653 -153 q 512 -126 571 -153 q 422 -47 453 -99 q 396 78 392 6 l 396 78 l 410 306 q 388 412 414 379 q 271 444 361 444 l 271 444 l 118 444 l 118 556 l 271 556 q 388 588 361 556 q 410 694 414 621 l 410 694 l 396 922 q 422 1047 392 996 q 512 1126 453 1099 q 653 1153 571 1153 l 653 1153 l 715 1153 l 715 1042 l 653 1042 q 553 1012 588 1042 q 521 922 518 982 l 521 922 l 535 694 q 492 551 540 604 l 492 551 q 396 500 456 511 l 396 500 q 492 450 454 490 l 492 450 q 535 306 540 396 l 535 306 l 521 78 q 553 -12 518 18 q 653 -42 588 -42 l 653 -42 l 715 -42 l 715 -153 z"},"}":{"ha":833,"x_min":118,"x_max":715,"o":"m 181 -153 l 118 -153 l 118 -42 l 181 -42 q 281 -12 246 -42 q 313 78 315 18 l 313 78 l 299 306 q 343 450 293 396 l 343 450 q 438 500 379 490 l 438 500 q 342 551 378 511 l 342 551 q 299 694 293 604 l 299 694 l 313 922 q 281 1012 315 982 q 181 1042 246 1042 l 181 1042 l 118 1042 l 118 1153 l 181 1153 q 322 1126 263 1153 q 411 1047 381 1099 q 438 922 442 996 l 438 922 l 424 694 q 446 588 419 621 q 563 556 472 556 l 563 556 l 715 556 l 715 444 l 563 444 q 447 412 474 444 q 424 306 419 379 l 424 306 l 438 78 q 411 -47 442 6 q 322 -126 381 -99 q 181 -153 263 -153 l 181 -153 z"},"%":{"ha":833,"x_min":19,"x_max":814,"o":"m 122 0 l 19 0 l 711 1014 l 814 1014 l 122 0 z m 618 -7 l 618 -7 q 478 43 531 -7 q 425 181 425 93 l 425 181 l 425 271 q 478 408 425 358 q 618 458 531 458 l 618 458 q 758 408 706 458 q 811 271 811 358 l 811 271 l 811 181 q 758 43 811 93 q 618 -7 706 -7 z m 618 89 l 618 89 q 708 181 708 89 l 708 181 l 708 271 q 618 364 708 364 l 618 364 q 528 271 528 364 l 528 271 l 528 181 q 618 89 528 89 z m 215 556 l 215 556 q 75 606 128 556 q 22 743 22 656 l 22 743 l 22 833 q 75 971 22 921 q 215 1021 128 1021 l 215 1021 q 356 971 303 1021 q 408 833 408 921 l 408 833 l 408 743 q 356 606 408 656 q 215 556 303 556 z m 215 650 l 215 650 q 306 743 306 650 l 306 743 l 306 833 q 215 926 306 926 l 215 926 q 148 903 171 926 q 125 833 125 881 l 125 833 l 125 743 q 148 673 125 696 q 215 650 171 650 z"},"-":{"ha":833,"x_min":194,"x_max":639,"o":"m 639 403 l 194 403 l 194 514 l 639 514 l 639 403 z"},"+":{"ha":833,"x_min":90,"x_max":743,"o":"m 478 132 l 356 132 l 356 403 l 90 403 l 90 514 l 356 514 l 356 785 l 478 785 l 478 514 l 743 514 l 743 403 l 478 403 l 478 132 z"},"/":{"ha":833,"x_min":104,"x_max":729,"o":"m 236 -153 l 104 -153 l 597 1153 l 729 1153 l 236 -153 z"},"&":{"ha":833,"x_min":76,"x_max":786,"o":"m 319 -14 l 319 -14 q 141 47 206 -14 q 76 215 76 108 l 76 215 l 76 389 q 115 513 76 463 q 224 585 153 564 l 224 585 l 214 599 q 151 707 171 657 q 132 807 132 757 l 132 807 q 163 924 132 874 q 251 1001 194 974 q 382 1028 307 1028 l 382 1028 q 522 999 463 1028 q 613 917 581 969 q 644 790 644 864 l 644 790 l 519 790 q 503 860 519 831 q 456 904 486 889 q 382 919 425 919 l 382 919 q 316 906 344 919 q 272 866 288 892 q 257 804 257 840 l 257 804 q 272 729 257 769 q 313 653 286 689 l 313 653 l 551 324 l 650 500 l 781 500 l 624 224 l 786 0 l 649 0 l 561 121 q 319 -14 458 -14 z m 326 97 l 326 97 q 417 128 374 97 q 492 215 461 160 l 492 215 l 288 497 q 223 463 244 490 q 201 389 201 435 l 201 389 l 201 215 q 234 128 201 160 q 326 97 267 97 z"},"@":{"ha":833,"x_min":63,"x_max":778,"o":"m 549 -250 l 451 -250 q 246 -201 333 -250 q 110 -60 158 -151 q 63 153 63 31 l 63 153 l 63 625 q 108 840 63 750 q 237 979 153 931 q 438 1028 321 1028 l 438 1028 q 619 987 543 1028 q 737 869 696 946 q 778 688 778 793 l 778 688 l 778 90 l 679 90 l 679 167 l 664 167 q 626 110 656 132 l 626 110 q 519 76 586 76 l 519 76 q 381 131 429 76 q 333 292 333 186 l 333 292 l 333 458 q 381 619 333 564 q 519 674 429 674 l 519 674 q 626 642 586 674 l 626 642 q 664 583 656 618 l 664 583 l 681 583 l 667 681 l 667 688 q 640 821 667 767 q 563 903 614 875 q 438 931 513 931 l 438 931 q 243 850 313 931 q 174 625 174 769 l 174 625 l 174 153 q 248 -66 174 14 q 451 -146 322 -146 l 451 -146 l 549 -146 l 549 -250 z m 556 164 l 556 164 q 640 199 613 164 q 667 306 667 233 l 667 306 l 667 460 q 640 556 667 525 q 556 586 613 586 l 556 586 q 472 555 500 586 q 444 458 444 524 l 444 458 l 444 292 q 472 195 444 226 q 556 164 500 164 z"},"#":{"ha":833,"x_min":49,"x_max":785,"o":"m 213 0 l 115 0 l 167 278 l 49 278 l 49 368 l 183 368 l 233 646 l 97 646 l 97 736 l 250 736 l 301 1014 l 399 1014 l 347 736 l 569 736 l 621 1014 l 718 1014 l 667 736 l 785 736 l 785 646 l 650 646 l 600 368 l 736 368 l 736 278 l 583 278 l 532 0 l 435 0 l 486 278 l 264 278 l 213 0 z m 331 646 l 281 368 l 503 368 l 553 646 l 331 646 z"}}}
